<?xml version="1.0" encoding="UTF-8"?>
<svg version="1.1" viewBox="0 0 1024 1024" width="1024" height="1024" xmlns="http://www.w3.org/2000/svg">
<path transform="translate(292,365)" d="m0 0h2l2 13 1 5-11 10-3 7v11l4 8 8 9 16 10 17 8 25 9 26 7 24 5 33 5 30 3 15 1 43 1 30-1 36-3 33-5 29-6 27-8 21-8 16-8 14-9 8-8 5-10v-10l-4-8-9-8-2-1 2-10 2-9 14 7 9 7 7 8 5 10 1 4v12l-4 11-7 10-10 10-13 9-18 10-23 10-21 7-22 6v2l1 2 2-2-1 4-1 2h2l2-6 1 2 5 1v-3h3v3l6-2h3l13 2 4 2h4l25-10 15-7-1 19-3 13-6 10-6 7-12 9-23 12-5 2h4l1 3h3l1 2h3l1 5 8 1 15-9 2-1-1 11-17 108-10 63-5 12-9 11-12 9-15 8-6 3-1 1 4 1 2-1 2 4-1 2h2l2 4-1 2 3-1 4 1 15-9 2-1-1 12-7 46-4 11-7 10-10 10-14 9-24 10-17 5-24 5-22 3-14 1h-30l-24-2-30-5-23-6-17-6-16-8-10-7-9-8-7-10-4-10-9-58 1-3 9 6 13 7 4-1-1-4 3-3 3 1 1-2 5-5-23-11-14-10-8-9-6-11-12-73-16-101-1-11 4 2 13 8 8 3v-2h2l-1-3 6-1v-1l-1-2 2-3 5-1 1-2-24-11-13-9-9-8-6-9-3-11-2-23 6 2 11 5 16 6 9 3 8-1 5-2 12 1 5 1 1-3 8-3-22-7-21-7-24-11-14-8-12-9-12-12-6-10-3-9v-13l5-12 9-10 14-9zm83 120 4 1zm4 1 4 1zm6 1m-15 1m18 0m260 0m-300 2m321 0m-300 1m299 0m8 0m-333 1m18 0m294 0m4 0m2 0m2 0m3 0m13 0m-10 1m16 0m-345 1m338 0m3 0m5 0 1 2zm-3 1m-332 53m-2 2 1 2 1-2z" fill="#E03335"/>
<path transform="translate(499,138)" d="m0 0h30l21 3 20 5 19 7 22 11 11 7 16 12 13 12 12 13 12 16 8 13 9 17 8 21 5 20 3 23v29l-3 22-5 22-7 19-10 20-6 7-13 6-31 9-31 6-32 4-37 2h-34l-38-2-30-4-5-2-6-9-8-8-11-5h-11l-4 3v12l-2 1-17-4-16-6-7-8-11-21-9-27-4-21-1-11v-38l3-22 5-19 8-21 10-19 8-12 10-13 9-10 14-14 16-12 18-11 16-8 19-7 21-5 12-2zm-71 38-2 3-2 12-4 6-10 4h-14l-2 3v6l5 4 3 1h11l10-4 8-7 4-6 2-6v-11l-3-5zm194 56-9 2-8 6-7 7-5 11-2 7v13l2 4 6 1 5-3 8-16 7-5 3-1h11l8 4 7 7 6 8 4 1 5-3v-8l-5-13-6-8-5-5-8-6-10-3zm-225 2-2 2-3 14-4 8-7 6-8 1-5-5-2-16-4-1-4 6-2 7v8l3 7 5 6 10 3 10-2 8-5 8-9 5-12v-14l-1-3zm113 11-10 3-10 6-8 9-6 13-2 9v8l3 6 3 2 5-1 4-4 6-12 5-6 9-5h10l8 3 7 6 6 8 6 1 4-3 1-6-4-13-6-10-7-7-9-5-9-2zm-151 54-2 2 1 7 4 8v10l-3 7-5 5h-9l-4-4-4-8-4 1-1 1v8l3 8 4 5 7 3h8l10-4 8-8 4-9 1-4v-11l-4-9-6-7-2-1zm294 22-6 4-1 2v8l1 6-8 16-11 13-13 10-14 7-13 4-5 1h-29l-16-4-16-8-9-7-5-4-3-4h-2l-2-4-3-5 1-5 1-2v-6l-3-4-8-2-8 1-7 4-6 7-2 5 1 7 2 3h8l4-1 8 13 10 12 11 9 9 6 16 8 16 4 7 1h22l16-3 16-6 11-6 11-8 12-12 9-13 7-14 4-12 7-1 2-2v-8l-3-5-9-5zm-267 45-5 2-1 5 5 4 10 5 5 6 1 3v7l-3 5 1 7 3 2 8-1 5-6 2-6v-10l-5-10-8-8-9-4zm-43 17-2 3 1 11 8 16 6 7 8 5 3 1h7l3-3v-11l-6-12-8-9-9-6-4-2zm97 35-6 2-2 4v7l4 8 5 5 6 5 10 4h12l4-3 1-6-3-7-6-8-10-7-11-4z" fill="#E0DCCE"/>
<path transform="translate(292,365)" d="m0 0h2l2 13 1 5-11 10-3 7v11l4 8 8 9 16 10 17 8 25 9 26 7 24 5 33 5 30 3 15 1 43 1 30-1 36-3 33-5 29-6 27-8 21-8 16-8 14-9 8-8 5-10v-10l-4-8-9-8-2-1 2-10 2-9 14 7 9 7 7 8 5 10 1 4v12l-4 11-7 10-10 10-13 9-18 10-23 10-21 7-22 6v2l1 2 2-2-1 4-1 2h2l2-6 1 2 5 1v-3h3v3l6-2h3l13 2 4 2h4l25-10 15-7-1 19-3 13-6 10-6 7-12 9-23 12-5 2h4l1 3h3l1 2h3l1 5 4 1 3 2-17 8-27 9-25 6-21 4-31 4-25 2-47 1-39-2-36-4-33-6-25-6-22-7-16-6-1-2 1-2h2l-1-3 6-1v-1l-1-2 2-3 5-1 1-2-24-11-13-9-9-8-6-9-3-11-2-23 6 2 11 5 16 6 9 3 8-1 5-2 12 1 5 1 1-3 8-3-22-7-21-7-24-11-14-8-12-9-12-12-6-10-3-9v-13l5-12 9-10 14-9zm83 120 4 1zm4 1 4 1zm6 1m-15 1m18 0m260 0m-300 2m321 0m-300 1m299 0m8 0m-333 1m18 0m294 0m4 0m2 0m2 0m3 0m13 0m-10 1m16 0m-345 1m338 0m3 0m5 0 1 2zm-3 1m-332 53m-2 2 1 2 1-2z" fill="#E03436"/>
<path transform="translate(351,776)" d="m0 0 24 14 25 9 30 8 31 5 36 3h37l27-2 28-4 26-6 27-9 19-9 12-8h1l-1 12-7 46-4 11-7 10-10 10-14 9-24 10-17 5-24 5-22 3-14 1h-30l-24-2-30-5-23-6-17-6-16-8-10-7-9-8-7-10-4-10-9-58z" fill="#E03335"/>
<path transform="translate(292,365)" d="m0 0h2l2 13 1 5-11 10-3 7v11l4 8 8 9 16 10 17 8 25 9 26 7 24 5 33 5 30 3 15 1 43 1 30-1 36-3 33-5 29-6 27-8 21-8 16-8 14-9 8-8 5-10v-10l-4-8-9-8-2-1 2-10 2-9 14 7 9 7 7 8 5 10 1 4v12l-4 11-7 10-10 10-13 9-18 10-23 10-21 7-22 6-3 3-8-1-26 5-29 4-22 2-18 1h-52l-32-2-42-5-28-5-2-1v2l-14-1-5 5-7 1-3-1 1-3h3l1-2 8-3-22-7-21-7-24-11-14-8-12-9-12-12-6-10-3-9v-13l5-12 9-10 14-9zm83 120 4 1zm4 1 4 1z" fill="#379392"/>
<path transform="translate(350,547)" d="m0 0 17 5 25 7 35 7 28 4 28 2 30 1 30-1 37-3 39-6 27-6 26-8 5-1h5l1 3h3l1 2h3l1 5 4 1 3 2-17 8-27 9-25 6-21 4-31 4-25 2-47 1-39-2-36-4-33-6-25-6-22-7-16-6-1-2 1-2h2l-1-3 6-1v-1l-1-2 2-3 5-1zm-1 3 1 2 1-2z" fill="#1A1413"/>
<path transform="translate(374,487)" d="m0 0 14 1 2-1 35 6 35 4 32 2h52l29-2 34-4 28-5 9-1 6 1 1 2 2-2-1 4-1 2h2l2-6 1 2 5 1v-3h3v3l6-2h3l13 2 4 2-1 3-10 3-26 7-24 5-31 5-28 3-35 2h-32l-35-2-40-4-40-7-31-7-20-6 1-3 8-3 12 1 1 2 6 1 7-3z" fill="#1A1312"/>
<path transform="translate(637,774)" d="m0 0 7 2 2-1 2 4-1 2h2l2 4-1 2 3-1 1 2-5 4-24 9-22 6-26 5-26 3-17 1h-37l-36-3-31-5-30-8-25-9 3-3-1-4 3-3 3 1 1-2 3-4 5-1 27 8 31 6 15 2 30 2h17l36-1 29-3 27-5 28-8z" fill="#1A1413"/>
<path transform="translate(354,586)" d="m0 0 16 5 4 5 11 74 8 58 2 15 2 8v6l-3 1-9-3-8-6-2-4-8-58-7-52-4-30-2-13z" fill="#EC6A76"/>
<path transform="translate(386,806)" d="m0 0 7 1 10 5 2 4 5 43v4l-7-1-8-4-4-5-3-22z" fill="#EC6A76"/>
<path transform="translate(655,488)" d="m0 0 1 2 5 1v-3h3v3l6-2h3l13 2 4 2-1 3h-7l-2-3-4 2-7-1-5 1-1-3-1 3-7-2-2 1z" fill="#348685"/>
<path transform="translate(673,489)" d="m0 0 13 2 4 2-1 3h-7l-2-3-3 2-7-3v-2z" fill="#2D6B6A"/>
<path transform="translate(385,185)" d="m0 0 2 1-7 8-12 12-3-1z" fill="#CCD9D2"/>
<path transform="translate(367,487)" d="m0 0 5 1-1 4-9 2-3-1 1-3h3l1-2z" fill="#2F7372"/>
<path transform="translate(384,436)" d="m0 0h1l1 13-2 1-14-3v-1h8l5 1v-9z" fill="#C1D9D6"/>
<path transform="translate(346,489)" d="m0 0h4l1 3-6 2v2l-8-1 1-3z" fill="#2C6362"/>
<path transform="translate(334,324)" d="m0 0 5 1v1l-6 2v12h-2l-1-3v-10z" fill="#C4DBD8"/>
<path transform="translate(390,251)" d="m0 0 1 4-7 8-5 2 1-3 8-7z" fill="#B8D7D5"/>
<path transform="translate(396,199)" d="m0 0h9l5 1v2h-14l-2 2v-4z" fill="#B3D4D2"/>
<path transform="translate(341,332)" d="m0 0 5 4h9l-1 3h-9l-4-3z" fill="#C8DBD7"/>
<path transform="translate(648,194)" d="m0 0 4 2 10 11h-3l-7-7v-2h-2v-2h-2z" fill="#C3DCDA"/>
<path transform="translate(345,382)" d="m0 0h7l10 6 1 2-4-1-9-5-5-1z" fill="#CADDDA"/>
<path transform="translate(463,428)" d="m0 0 4 1 7 9v6l-2-4-7-10z" fill="#BAD4D0"/>
<path transform="translate(648,445)" d="m0 0h6l-3 2-10 3h-3v-2z" fill="#B4D3D0"/>
<path transform="translate(335,485)" d="m0 0 3 3h8l-3 2-10 2v-2h2z" fill="#338685"/>
<path transform="translate(610,381)" d="m0 0 3 1-12 6h-3v-2z" fill="#B2D2D0"/>
<path transform="translate(340,388)" d="m0 0 2 4 3 12h-2l-4-12z" fill="#BCD6D3"/>
<path transform="translate(625,451)" d="m0 0 4 2-13 2-2-2z" fill="#B5D4D2"/>
<path transform="translate(330,486)" d="m0 0 4 1-4 4v-3z" fill="#379493"/>
<path transform="translate(691,489)" d="m0 0 5 1-1 2-5 1z" fill="#379493"/>
<path transform="translate(366,485)" d="m0 0 3 1-5 1z" fill="#379493"/>
<path transform="translate(328,485)" d="m0 0 2 3-3-1z" fill="#379493"/>
<path transform="translate(360,487)" d="m0 0 2 2-3-1z" fill="#2F7372"/>
<path transform="translate(684,489)" d="m0 0 2 1-2 1z" fill="#379493"/>
<path transform="translate(660,489)" d="m0 0" fill="#379493"/>
<path transform="translate(677,489)" d="m0 0 2 1z" fill="#379493"/>
<path transform="translate(690,487)" d="m0 0 2 1z" fill="#379493"/>
<path transform="translate(325,487)" d="m0 0 2 1z" fill="#379493"/>
<path transform="translate(654,486)" d="m0 0 2 1z" fill="#379493"/>
<path transform="translate(651,785)" d="m0 0" fill="#379493"/>
<path transform="translate(384,779)" d="m0 0" fill="#379493"/>
<path transform="translate(380,779)" d="m0 0" fill="#379493"/>
<path transform="translate(385,776)" d="m0 0" fill="#379493"/>
<path transform="translate(382,775)" d="m0 0" fill="#379493"/>
<path transform="translate(691,557)" d="m0 0" fill="#379493"/>
<path transform="translate(334,556)" d="m0 0" fill="#379493"/>
<path transform="translate(338,548)" d="m0 0" fill="#379493"/>
<path transform="translate(689,490)" d="m0 0" fill="#379493"/>
<path transform="translate(698,489)" d="m0 0" fill="#379493"/>
<path transform="translate(358,489)" d="m0 0" fill="#379493"/>
<path transform="translate(355,489)" d="m0 0" fill="#379493"/>
<path transform="translate(671,488)" d="m0 0" fill="#379493"/>
<path transform="translate(657,488)" d="m0 0" fill="#1A1312"/>
<path transform="translate(704,487)" d="m0 0" fill="#379493"/>
<path transform="translate(688,487)" d="m0 0" fill="#379493"/>
<path transform="translate(350,487)" d="m0 0" fill="#379493"/>
<path transform="translate(341,487)" d="m0 0" fill="#379493"/>
<path transform="translate(706,486)" d="m0 0" fill="#379493"/>
<path transform="translate(339,486)" d="m0 0" fill="#379493"/>
<path transform="translate(676,484)" d="m0 0" fill="#379493"/>
<path transform="translate(329,484)" d="m0 0" fill="#379493"/>
</svg>
